<svg height="468pt" viewBox="0 -10 468.0094 468" width="468pt" xmlns="http://www.w3.org/2000/svg"><path d="m468.003906 7.75c.0625-2.0625-.726562-4.058594-2.179687-5.523438-1.453125-1.464843-3.441407-2.2656245-5.503907-2.2187495h-452.632812c-2.0625-.046875-4.050781.7539065-5.503906 2.2187495-1.453125 1.464844-2.2421878 3.460938-2.17968775 5.523438v361.1875c-.07031245 2.09375.70312475 4.128906 2.14843775 5.648438 1.445312 1.519531 3.4375 2.390624 5.535156 2.421874h155.765625l-15.511719 55h-27.46875c-4.417968 0-8 3.582032-8 8 0 4.417969 3.582032 8 8 8h227.066406c4.417969 0 8-3.582031 8-8 0-4.417968-3.582031-8-8-8h-27.46875l-15.511718-55h155.761718c2.097657-.03125 4.09375-.902343 5.539063-2.421874 1.445313-1.519532 2.21875-3.554688 2.144531-5.648438zm-452 8.257812h436v270h-436zm287.449219 416h-138.902344l15.515625-55h107.871094zm148.550781-71h-436v-59h436zm0 0"/><path d="m260.003906 193.5625v-72.726562c0-.167969-.183594-.332032-.199218-.496094 0-.125-.058594-.242188-.0625-.367188-.046876-3.335937-2.148438-6.292968-5.28125-7.433594l-97.128907-35.695312c-1.785156-.652344-3.746093-.652344-5.53125 0l-97.105469 35.695312c-3.128906 1.144532-5.21875 4.109376-5.242187 7.441407-.027344 3.332031 2.015625 6.328125 5.125 7.523437l26.425781 10.269532v68.714843c-.011718 3.335938 2.050782 6.328125 5.175782 7.5 44.085937 16.4375 92.621093 16.4375 136.707031 0 3.113281-1.179687 5.15625-4.175781 5.117187-7.5v-68.714843l16-6.027344v61.933594c-8.488281 3.84375-13.132812 13.105468-11.132812 22.207031 2 9.101562 10.097656 15.5625 19.417968 15.492187 9.316407-.070312 17.316407-6.652344 19.179688-15.78125 1.863281-9.132812-2.917969-18.320312-11.464844-22.035156zm-163 7.277344v-14.648438c37.460938 11.5625 77.539063 11.5625 115 0v14.648438c-37.292968 12.628906-77.707031 12.628906-115 0zm115-31.460938c-37.292968 12.632813-77.707031 12.632813-115 0v-25.371094l54.679688 21.292969c.921875.359375 1.898437.542969 2.886718.542969.964844 0 1.917969-.183594 2.8125-.542969l54.621094-21.292969zm5.785156-44.734375c-.3125.101563-.621093.21875-.921874.359375l-62.3125 24.25-62.3125-24.246094c-.300782-.140624-.609376-.257812-.921876-.359374l-11.265624-4.386719 74.5-27.382813 74.5 27.382813zm34 91.015625c-2.132812 0-3.867187-1.730468-3.867187-3.867187s1.730469-3.867188 3.867187-3.867188c2.136719 0 3.867188 1.730469 3.867188 3.867188s-1.734375 3.867187-3.871094 3.867187zm0 0"/><path d="m287.878906 149.007812h122.683594c4.417969 0 8-3.582031 8-8 0-4.417968-3.582031-8-8-8h-122.683594c-4.417968 0-8 3.582032-8 8 0 4.417969 3.582032 8 8 8zm0 0"/><path d="m410.5625 159.007812h-122.683594c-4.417968 0-8 3.582032-8 8 0 4.417969 3.582032 8 8 8h122.683594c4.417969 0 8-3.582031 8-8 0-4.417968-3.582031-8-8-8zm0 0"/><path d="m410.5625 186.007812h-122.683594c-4.417968 0-8 3.582032-8 8 0 4.417969 3.582032 8 8 8h122.683594c4.417969 0 8-3.582031 8-8 0-4.417968-3.582031-8-8-8zm0 0"/><path d="m287.878906 122.007812h41.824219c4.417969 0 8-3.582031 8-8 0-4.417968-3.582031-8-8-8h-41.824219c-4.417968 0-8 3.582032-8 8 0 4.417969 3.582032 8 8 8zm0 0"/></svg>